# xmcd
#
# Track frame offsets: 
#        182
#        22277
#        44297
#        64612
#        92217
#        116332
#        159467
#        181940
#        197352
#        214725
#        233317
#        262710
#        278675
#
# Disc length: 4278 seconds
#
# Revision: 1
# Processed by: cddbd v1.5.2PL0 Copyright (c) Steve Scherf et al.
# Submitted via: ExactAudioCopy v0.99pb5
#
DISCID=a110b40d
DTITLE=Tiny Grimes - Some Groovy Fours
DYEAR=1989
DGENRE=Blues
TTITLE0=Tiny's Boogie Woogie
TTITLE1=Every Day I Have The Blues
TTITLE2=Swinging Mama
TTITLE3=Some Groovy Fours
TTITLE4=I Found A New Baby
TTITLE5=Tee Nine Sy
TTITLE6=Lester Leaps In
TTITLE7=Sid West End Blues
TTITLE8=Lil Darlin'
TTITLE9=Swinging Mama II
TTITLE10=Frankie And Johnny Boogie
TTITLE11=Food For Thought
TTITLE12=Morgantini With Mime N°2
EXTD=YEAR: 1989
EXTT0=
EXTT1=
EXTT2=
EXTT3=
EXTT4=
EXTT5=
EXTT6=
EXTT7=
EXTT8=
EXTT9=
EXTT10=
EXTT11=
EXTT12=
PLAYORDER=
